<?xml version="1.0" encoding="utf-8"?>
<!-- Generator: Adobe Illustrator 26.0.1, SVG Export Plug-In . SVG Version: 6.00 Build 0)  -->
<svg version="1.1" id="Layer_1" xmlns="http://www.w3.org/2000/svg" xmlns:xlink="http://www.w3.org/1999/xlink" x="0px" y="0px"
	 width="243.3px" height="211.4px" viewBox="0 0 243.3 211.4" style="enable-background:new 0 0 243.3 211.4;" xml:space="preserve"
	>
<path d="M75.9,33c0-3,0-5.5,0-8c0.1-5.2,2.9-8.1,8.1-8.3c4-0.1,8,0.1,12-0.1c1.2-0.1,2.9-1.2,3.5-2.3C104.1,5.1,111.4,0,121.7,0
	c10.2,0,17.5,5,21.9,14.2c1,2.1,2.2,2.6,4.3,2.5c3.7-0.1,7.5-0.1,11.2,0c5.4,0.1,8.2,3,8.3,8.4c0,2.5,0,4.9,0,7.9c1.7,0,3,0,4.3,0
	c18.6,0,37.2,0,55.8,0c10.1,0,15.8,5.6,15.8,15.8c0,48.9,0,97.8,0,146.6c0,10.3-5.6,15.9-16,15.9c-70.5,0-140.9,0-211.4,0
	C5.7,211.4,0,205.7,0,195.7c0-49,0-98,0-147C0,38.6,5.9,33,16,33c18.5,0,36.9,0,55.4,0C72.7,33,74,33,75.9,33z M227.8,196
	c0-49.3,0-98.5,0-147.7c-20.2,0-40.1,0-60.4,0c0,2.8,0.1,5.4,0,8c-0.1,5-3,8-7.9,8c-25.2,0.1-50.4,0.1-75.6,0c-4.9,0-7.8-3.1-7.9-8
	c-0.1-2.7,0-5.4,0-8.1c-20.5,0-40.4,0-60.5,0c0,49.3,0,98.4,0,147.7C86.3,196,157,196,227.8,196z M152.1,31.9c-4.2,0-8.1,0-12.1,0
	c-6.4-0.1-8.6-2.1-9.4-8.5c-0.6-4.9-4.2-8.4-8.9-8.4c-4.7,0-8.3,3.4-8.9,8.4c-0.8,6.4-3,8.5-9.4,8.5c-4,0-7.9,0-12,0
	c0,6,0,11.5,0,17c20.4,0,40.6,0,60.8,0C152.1,43.2,152.1,37.8,152.1,31.9z"/>
<path d="M171.4,147c9.8,0,19.7,0,29.5,0c1.1,0,2.2,0,3.4,0.1c4.1,0.5,6.9,3.6,7,7.5c0,3.9-2.8,7-6.9,7.5c-2,0.2-4,0.1-6,0.1
	c-18.9,0-37.9,0-56.8,0c-1.6,0-3.3,0-4.8-0.4c-3.5-0.9-5.7-3.9-5.6-7.4c0.1-3.5,2.4-6.4,6-7.2c1.3-0.3,2.7-0.3,4.1-0.3
	C151.2,147,161.3,147,171.4,147z"/>
<path d="M171.1,114.6c10.7,0,21.5,0,32.2,0c4.2,0,7,2.4,7.7,6.2c0.6,3.5-1.1,6.9-4.4,8.2c-1.2,0.5-2.7,0.6-4,0.6
	c-21.1,0-42.1,0-63.2,0c-5.1,0-8.5-3.1-8.5-7.5c0-4.5,3.5-7.6,8.8-7.6C150.1,114.6,160.6,114.6,171.1,114.6z"/>
<path d="M158.9,97.3c-6.4,0-12.7,0.1-19,0c-5.4-0.1-8.8-3-8.8-7.6c0-4.6,3.3-7.6,8.7-7.6c12.6-0.1,25.1-0.1,37.7,0
	c5.5,0,8.7,2.9,8.8,7.5c0,4.8-3.3,7.6-9,7.7C171.1,97.4,165,97.3,158.9,97.3z"/>
<path d="M111.9,115.7c-1.5,2-2.6,4.3-4.4,5.8c-4.2,3.5-8.7,6.8-13.2,9.9c-1.9,1.3-2.1,2.6-1.4,4.6c1.7,5.2,3.2,10.5,4.9,15.7
	c1.2,3.7,0.5,6.8-2.7,9.1c-3.2,2.3-6.4,1.8-9.5-0.5c-4.5-3.2-9-6.3-13.4-9.5c-1.6-1.2-2.9-1.3-4.5,0c-4.4,3.3-9,6.4-13.5,9.5
	c-3.7,2.5-7,2.6-9.8,0.4c-3-2.5-3.6-5.6-2.4-9.2c1.7-5.2,3.2-10.5,4.9-15.7c0.6-2,0.3-3.1-1.4-4.3c-4.5-3.2-8.9-6.5-13.2-9.9
	c-3.4-2.6-4.6-5.9-3.3-9.2c1.4-3.7,4.3-5.1,8.1-5.1c5.4,0,10.8-0.2,16.1-0.1c2.2,0,3.3-0.6,3.9-2.8c1.6-5.2,3.6-10.4,5.3-15.6
	c1.2-3.6,3.5-5.9,7.4-5.9s6.3,2.2,7.5,5.8c1.7,5,3.6,9.9,5,14.9c0.8,2.9,2.3,3.7,5.2,3.6c5.2-0.2,10.5-0.1,15.8,0.1
	C108.1,107.5,111.2,110.7,111.9,115.7z M92.6,118.9c-0.1-0.3-0.2-0.5-0.2-0.8c-3.3,0-6.5,0-9.8,0c-5.3-0.1-7.4-1.7-9.2-6.7
	c-1.1-3.1-2.2-6.2-3.6-10.2c-1.4,3.9-2.4,6.8-3.4,9.6c-2,5.8-3.9,7.2-10.2,7.3c-3,0-6.1,0-9.1,0c2.3,2.6,4.6,4.4,7,6.1
	c5.2,4,5.9,6,4,12.2c-0.9,2.9-1.7,5.8-2.7,9c0.7-0.1,0.8-0.1,0.9-0.1c2.6-1.8,5.2-3.6,7.8-5.4c4.4-3,6.9-3,11.4,0
	c2.7,1.9,5.4,3.8,9,6.3c-1.4-4.5-2.5-7.8-3.5-11.2c-1.2-4.2-0.3-6.9,3.2-9.6C87,123.1,89.8,121,92.6,118.9z"/>
</svg>
